<mxfile host="app.diagrams.net" agent="Mozilla/5.0 (Windows NT 10.0; Win64; x64; rv:133.0) Gecko/20100101 Firefox/133.0" version="25.0.3">
  <diagram id="C5RBs43oDa-KdzZeNtuy" name="Page-1">
    <mxGraphModel dx="549" dy="317" grid="1" gridSize="10" guides="1" tooltips="1" connect="1" arrows="1" fold="1" page="1" pageScale="1" pageWidth="827" pageHeight="1169" math="0" shadow="0">
      <root>
        <mxCell id="WIyWlLk6GJQsqaUBKTNV-0" />
        <mxCell id="WIyWlLk6GJQsqaUBKTNV-1" parent="WIyWlLk6GJQsqaUBKTNV-0" />
        <mxCell id="08CXRnEZASxAXbB15fuh-3" value="" style="edgeStyle=orthogonalEdgeStyle;rounded=0;orthogonalLoop=1;jettySize=auto;html=1;" edge="1" parent="WIyWlLk6GJQsqaUBKTNV-1" source="WIyWlLk6GJQsqaUBKTNV-3" target="08CXRnEZASxAXbB15fuh-2">
          <mxGeometry relative="1" as="geometry" />
        </mxCell>
        <mxCell id="WIyWlLk6GJQsqaUBKTNV-3" value="START" style="rounded=1;whiteSpace=wrap;html=1;fontSize=12;glass=0;strokeWidth=1;shadow=0;" parent="WIyWlLk6GJQsqaUBKTNV-1" vertex="1">
          <mxGeometry x="210" y="40" width="135" height="70" as="geometry" />
        </mxCell>
        <mxCell id="08CXRnEZASxAXbB15fuh-5" value="" style="edgeStyle=orthogonalEdgeStyle;rounded=0;orthogonalLoop=1;jettySize=auto;html=1;" edge="1" parent="WIyWlLk6GJQsqaUBKTNV-1" source="08CXRnEZASxAXbB15fuh-2" target="08CXRnEZASxAXbB15fuh-4">
          <mxGeometry relative="1" as="geometry" />
        </mxCell>
        <mxCell id="08CXRnEZASxAXbB15fuh-2" value="Generate a random word" style="whiteSpace=wrap;html=1;rounded=1;glass=0;strokeWidth=1;shadow=0;" vertex="1" parent="WIyWlLk6GJQsqaUBKTNV-1">
          <mxGeometry x="217.5" y="150" width="120" height="60" as="geometry" />
        </mxCell>
        <mxCell id="08CXRnEZASxAXbB15fuh-7" value="" style="edgeStyle=orthogonalEdgeStyle;rounded=0;orthogonalLoop=1;jettySize=auto;html=1;" edge="1" parent="WIyWlLk6GJQsqaUBKTNV-1" source="08CXRnEZASxAXbB15fuh-4" target="08CXRnEZASxAXbB15fuh-6">
          <mxGeometry relative="1" as="geometry" />
        </mxCell>
        <mxCell id="08CXRnEZASxAXbB15fuh-4" value="Generate as many blanks as letters in word" style="whiteSpace=wrap;html=1;rounded=1;glass=0;strokeWidth=1;shadow=0;" vertex="1" parent="WIyWlLk6GJQsqaUBKTNV-1">
          <mxGeometry x="217.5" y="250" width="120" height="60" as="geometry" />
        </mxCell>
        <mxCell id="08CXRnEZASxAXbB15fuh-11" value="" style="edgeStyle=orthogonalEdgeStyle;rounded=0;orthogonalLoop=1;jettySize=auto;html=1;" edge="1" parent="WIyWlLk6GJQsqaUBKTNV-1" source="08CXRnEZASxAXbB15fuh-6" target="08CXRnEZASxAXbB15fuh-10">
          <mxGeometry relative="1" as="geometry" />
        </mxCell>
        <mxCell id="08CXRnEZASxAXbB15fuh-6" value="Ask the user to guess a letter" style="whiteSpace=wrap;html=1;rounded=1;glass=0;strokeWidth=1;shadow=0;" vertex="1" parent="WIyWlLk6GJQsqaUBKTNV-1">
          <mxGeometry x="217.5" y="350" width="120" height="60" as="geometry" />
        </mxCell>
        <mxCell id="08CXRnEZASxAXbB15fuh-13" value="" style="edgeStyle=orthogonalEdgeStyle;rounded=0;orthogonalLoop=1;jettySize=auto;html=1;" edge="1" parent="WIyWlLk6GJQsqaUBKTNV-1" source="08CXRnEZASxAXbB15fuh-10" target="08CXRnEZASxAXbB15fuh-12">
          <mxGeometry relative="1" as="geometry" />
        </mxCell>
        <mxCell id="08CXRnEZASxAXbB15fuh-15" value="" style="edgeStyle=orthogonalEdgeStyle;rounded=0;orthogonalLoop=1;jettySize=auto;html=1;" edge="1" parent="WIyWlLk6GJQsqaUBKTNV-1" source="08CXRnEZASxAXbB15fuh-10" target="08CXRnEZASxAXbB15fuh-14">
          <mxGeometry relative="1" as="geometry" />
        </mxCell>
        <mxCell id="08CXRnEZASxAXbB15fuh-10" value="Is the guessed letter in the word?" style="whiteSpace=wrap;html=1;rounded=1;glass=0;strokeWidth=1;shadow=0;" vertex="1" parent="WIyWlLk6GJQsqaUBKTNV-1">
          <mxGeometry x="217.5" y="490" width="120" height="60" as="geometry" />
        </mxCell>
        <mxCell id="08CXRnEZASxAXbB15fuh-25" value="" style="edgeStyle=orthogonalEdgeStyle;rounded=0;orthogonalLoop=1;jettySize=auto;html=1;fontFamily=Helvetica;fontSize=12;fontColor=default;" edge="1" parent="WIyWlLk6GJQsqaUBKTNV-1" source="08CXRnEZASxAXbB15fuh-12" target="08CXRnEZASxAXbB15fuh-24">
          <mxGeometry relative="1" as="geometry" />
        </mxCell>
        <mxCell id="08CXRnEZASxAXbB15fuh-12" value="Replace the blank with a letter" style="whiteSpace=wrap;html=1;rounded=1;glass=0;strokeWidth=1;shadow=0;" vertex="1" parent="WIyWlLk6GJQsqaUBKTNV-1">
          <mxGeometry x="345" y="585" width="120" height="60" as="geometry" />
        </mxCell>
        <mxCell id="08CXRnEZASxAXbB15fuh-27" value="" style="edgeStyle=orthogonalEdgeStyle;rounded=0;orthogonalLoop=1;jettySize=auto;html=1;fontFamily=Helvetica;fontSize=12;fontColor=default;" edge="1" parent="WIyWlLk6GJQsqaUBKTNV-1" source="08CXRnEZASxAXbB15fuh-14" target="08CXRnEZASxAXbB15fuh-26">
          <mxGeometry relative="1" as="geometry" />
        </mxCell>
        <mxCell id="08CXRnEZASxAXbB15fuh-14" value="Lose a life" style="whiteSpace=wrap;html=1;rounded=1;glass=0;strokeWidth=1;shadow=0;" vertex="1" parent="WIyWlLk6GJQsqaUBKTNV-1">
          <mxGeometry x="90" y="585" width="120" height="60" as="geometry" />
        </mxCell>
        <mxCell id="08CXRnEZASxAXbB15fuh-16" value="Yes" style="text;html=1;align=center;verticalAlign=middle;resizable=0;points=[];autosize=1;strokeColor=none;fillColor=none;" vertex="1" parent="WIyWlLk6GJQsqaUBKTNV-1">
          <mxGeometry x="414" y="510" width="40" height="30" as="geometry" />
        </mxCell>
        <mxCell id="08CXRnEZASxAXbB15fuh-17" value="&lt;div&gt;No&lt;/div&gt;" style="text;html=1;align=center;verticalAlign=middle;resizable=0;points=[];autosize=1;strokeColor=none;fillColor=none;" vertex="1" parent="WIyWlLk6GJQsqaUBKTNV-1">
          <mxGeometry x="110" y="510" width="40" height="30" as="geometry" />
        </mxCell>
        <mxCell id="08CXRnEZASxAXbB15fuh-29" value="" style="edgeStyle=orthogonalEdgeStyle;rounded=0;orthogonalLoop=1;jettySize=auto;html=1;fontFamily=Helvetica;fontSize=12;fontColor=default;" edge="1" parent="WIyWlLk6GJQsqaUBKTNV-1">
          <mxGeometry relative="1" as="geometry">
            <mxPoint x="390" y="782.5" as="sourcePoint" />
            <mxPoint x="340" y="360" as="targetPoint" />
            <Array as="points">
              <mxPoint x="516.25" y="783" />
            </Array>
          </mxGeometry>
        </mxCell>
        <mxCell id="08CXRnEZASxAXbB15fuh-24" value="Are all the blanks filled?" style="rhombus;whiteSpace=wrap;html=1;rounded=1;glass=0;strokeWidth=1;shadow=0;" vertex="1" parent="WIyWlLk6GJQsqaUBKTNV-1">
          <mxGeometry x="336.25" y="715" width="137.5" height="135" as="geometry" />
        </mxCell>
        <mxCell id="08CXRnEZASxAXbB15fuh-35" value="" style="edgeStyle=orthogonalEdgeStyle;rounded=0;orthogonalLoop=1;jettySize=auto;html=1;fontFamily=Helvetica;fontSize=12;fontColor=default;exitX=0;exitY=0.5;exitDx=0;exitDy=0;" edge="1" parent="WIyWlLk6GJQsqaUBKTNV-1" source="08CXRnEZASxAXbB15fuh-26">
          <mxGeometry relative="1" as="geometry">
            <mxPoint x="70" y="782.5" as="sourcePoint" />
            <mxPoint x="210" y="360" as="targetPoint" />
            <Array as="points">
              <mxPoint x="28" y="783" />
              <mxPoint x="28" y="360" />
            </Array>
          </mxGeometry>
        </mxCell>
        <mxCell id="08CXRnEZASxAXbB15fuh-26" value="Have they run out of lives?" style="rhombus;whiteSpace=wrap;html=1;rounded=1;glass=0;strokeWidth=1;shadow=0;" vertex="1" parent="WIyWlLk6GJQsqaUBKTNV-1">
          <mxGeometry x="82.5" y="715" width="135" height="135" as="geometry" />
        </mxCell>
        <mxCell id="08CXRnEZASxAXbB15fuh-40" value="No" style="text;html=1;align=center;verticalAlign=middle;resizable=0;points=[];autosize=1;strokeColor=none;fillColor=none;fontFamily=Helvetica;fontSize=12;fontColor=default;" vertex="1" parent="WIyWlLk6GJQsqaUBKTNV-1">
          <mxGeometry x="500" y="778" width="40" height="30" as="geometry" />
        </mxCell>
        <mxCell id="08CXRnEZASxAXbB15fuh-41" value="No" style="text;html=1;align=center;verticalAlign=middle;resizable=0;points=[];autosize=1;strokeColor=none;fillColor=none;fontFamily=Helvetica;fontSize=12;fontColor=default;" vertex="1" parent="WIyWlLk6GJQsqaUBKTNV-1">
          <mxGeometry x="10" y="778" width="40" height="30" as="geometry" />
        </mxCell>
        <mxCell id="08CXRnEZASxAXbB15fuh-51" value="" style="endArrow=none;html=1;rounded=0;fontFamily=Helvetica;fontSize=12;fontColor=default;" edge="1" parent="WIyWlLk6GJQsqaUBKTNV-1">
          <mxGeometry width="50" height="50" relative="1" as="geometry">
            <mxPoint x="150" y="1000" as="sourcePoint" />
            <mxPoint x="400" y="1000" as="targetPoint" />
          </mxGeometry>
        </mxCell>
        <mxCell id="08CXRnEZASxAXbB15fuh-53" value="" style="endArrow=none;html=1;rounded=0;fontFamily=Helvetica;fontSize=12;fontColor=default;" edge="1" parent="WIyWlLk6GJQsqaUBKTNV-1" source="08CXRnEZASxAXbB15fuh-24">
          <mxGeometry width="50" height="50" relative="1" as="geometry">
            <mxPoint x="270" y="1010" as="sourcePoint" />
            <mxPoint x="400" y="1000" as="targetPoint" />
          </mxGeometry>
        </mxCell>
        <mxCell id="08CXRnEZASxAXbB15fuh-54" value="" style="endArrow=none;html=1;rounded=0;fontFamily=Helvetica;fontSize=12;fontColor=default;entryX=0.5;entryY=1;entryDx=0;entryDy=0;" edge="1" parent="WIyWlLk6GJQsqaUBKTNV-1" target="08CXRnEZASxAXbB15fuh-26">
          <mxGeometry width="50" height="50" relative="1" as="geometry">
            <mxPoint x="150" y="1000" as="sourcePoint" />
            <mxPoint x="320" y="960" as="targetPoint" />
          </mxGeometry>
        </mxCell>
        <mxCell id="08CXRnEZASxAXbB15fuh-55" value="" style="shape=flexArrow;endArrow=classic;html=1;rounded=0;fontFamily=Helvetica;fontSize=12;fontColor=default;" edge="1" parent="WIyWlLk6GJQsqaUBKTNV-1">
          <mxGeometry width="50" height="50" relative="1" as="geometry">
            <mxPoint x="277" y="1000" as="sourcePoint" />
            <mxPoint x="277" y="1080" as="targetPoint" />
          </mxGeometry>
        </mxCell>
        <mxCell id="08CXRnEZASxAXbB15fuh-56" value="Actor" style="shape=umlActor;verticalLabelPosition=bottom;verticalAlign=top;html=1;outlineConnect=0;rounded=1;shadow=0;glass=0;strokeColor=default;strokeWidth=1;align=center;fontFamily=Helvetica;fontSize=12;fontColor=default;fillColor=default;" vertex="1" parent="WIyWlLk6GJQsqaUBKTNV-1">
          <mxGeometry x="262.5" y="940" width="30" height="60" as="geometry" />
        </mxCell>
        <mxCell id="08CXRnEZASxAXbB15fuh-58" value="GAME OVER" style="rounded=0;whiteSpace=wrap;html=1;shadow=0;glass=0;strokeColor=default;strokeWidth=1;align=center;verticalAlign=middle;fontFamily=Helvetica;fontSize=12;fontColor=default;fillColor=default;" vertex="1" parent="WIyWlLk6GJQsqaUBKTNV-1">
          <mxGeometry x="140" y="1080" width="260" height="60" as="geometry" />
        </mxCell>
      </root>
    </mxGraphModel>
  </diagram>
</mxfile>
